<svg width="92" height="153" viewBox="0 0 92 153" fill="none" xmlns="http://www.w3.org/2000/svg">
<path fill-rule="evenodd" clip-rule="evenodd" d="M65.9707 115.302L60.6048 99.124L74.1381 98.3156L76.0626 104.118L66.1199 104.656L71.3436 120.405L71.3435 120.405C71.3435 120.405 71.3435 120.405 71.3435 120.405C71.6685 121.384 71.7973 122.419 71.7226 123.448C71.6479 124.477 71.3711 125.482 70.9082 126.405C70.4452 127.327 69.8051 128.149 69.0243 128.825C68.2436 129.5 67.3375 130.014 66.3578 130.339C65.3781 130.664 64.344 130.793 63.3146 130.718C62.2851 130.644 61.2805 130.367 60.358 129.904C59.4355 129.441 58.6132 128.801 57.9381 128.02C57.2629 127.239 56.7482 126.333 56.4233 125.354C56.0983 124.374 55.9695 123.34 56.0442 122.31C56.1189 121.281 56.3956 120.276 56.8586 119.354C57.3216 118.431 57.9617 117.609 58.7425 116.934C59.5232 116.259 60.4293 115.744 61.409 115.419C62.3887 115.094 63.4228 114.965 64.4522 115.04C64.9669 115.077 65.4755 115.165 65.9707 115.302Z" fill="#1848DA"/>
<path d="M1.14844 75.7493L45.9093 103.294V151.498L1.14844 123.953V75.7493Z" fill="#1848DA"/>
<path d="M44.7617 0L0.00084877 27.5452V75.7492L44.7617 48.204V0Z" fill="black"/>
<path d="M45.9102 103.294L45.9102 151.498" stroke="black" stroke-width="1.14771" stroke-linecap="round"/>
<path d="M90.6699 75.7493L90.6699 123.953" stroke="black" stroke-width="1.14771" stroke-linecap="round"/>
<path d="M45.9102 48.2041L45.9102 90.6695" stroke="black" stroke-width="1.14771" stroke-linecap="round"/>
<path d="M1.14844 75.7493L1.14844 123.953" stroke="black" stroke-width="1.14771" stroke-linecap="round"/>
<path d="M91.052 124.121L46.1206 152.015L1.48077 124.302" stroke="black" stroke-width="1.14771" stroke-linecap="round"/>
<path d="M35.0075 95.8313L45.5218 89.5306L56.2395 95.8315" stroke="black" stroke-width="1.14771" stroke-linecap="round"/>
<rect y="0.605352" width="52.4358" height="52.4358" transform="matrix(0.849591 0.527441 -0.849591 0.527441 46.0377 47.3425)" stroke="black" stroke-width="1.14771"/>
</svg>
