<svg width="116" height="134" viewBox="0 0 116 134" fill="none" xmlns="http://www.w3.org/2000/svg">
<path d="M114.543 36.2473L114.543 97.1426" stroke="black" stroke-width="1.44989" stroke-linecap="round"/>
<path d="M1.45117 36.2473L57.9968 71.0446V131.94L1.45117 97.1426V36.2473Z" fill="#1848DA"/>
<path d="M57.9961 63.7952L57.9961 131.94" stroke="black" stroke-width="1.44989" stroke-linecap="round"/>
<path d="M1.45117 36.2473L1.45117 97.1426" stroke="black" stroke-width="1.44989"/>
<path d="M115.024 97.2982L58.2626 132.536L1.86985 97.5268" stroke="black" stroke-width="1.44989" stroke-linecap="round"/>
<rect y="1.23064" width="65.358" height="65.358" transform="matrix(0.849591 0.527441 -0.849591 0.527441 58.5553 0.581551)" fill="black" stroke="black" stroke-width="2.33323"/>
<path fill-rule="evenodd" clip-rule="evenodd" d="M87.9707 85.3016L82.6048 69.124L96.1381 68.3156L98.0626 74.1179L88.1199 74.6555L93.3436 90.4047L93.3435 90.4047C93.3435 90.4047 93.3435 90.4048 93.3435 90.4048C93.6685 91.3845 93.7973 92.4186 93.7226 93.448C93.6479 94.4775 93.3711 95.4822 92.9082 96.4047C92.4452 97.3272 91.8051 98.1495 91.0243 98.8246C90.2436 99.4997 89.3375 100.014 88.3578 100.339C87.3781 100.664 86.344 100.793 85.3146 100.718C84.2851 100.644 83.2805 100.367 82.358 99.904C81.4355 99.441 80.6132 98.8009 79.9381 98.0202C79.2629 97.2394 78.7482 96.3333 78.4233 95.3536C78.0983 94.374 77.9695 93.3399 78.0442 92.3104C78.1189 91.281 78.3956 90.2763 78.8586 89.3538C79.3216 88.4313 79.9617 87.609 80.7425 86.9339C81.5232 86.2588 82.4293 85.744 83.409 85.4191C84.3887 85.0941 85.4228 84.9653 86.4522 85.04C86.9669 85.0774 87.4755 85.1653 87.9707 85.3016Z" fill="#1848DA"/>
</svg>
