<svg width="451" height="387" viewBox="0 0 451 387" fill="none" xmlns="http://www.w3.org/2000/svg">
<g clip-path="url(#clip0_4387_307)">
<rect width="451" height="387" fill="white"/>
<g clip-path="url(#clip1_4387_307)">
<path d="M362.016 320.456C362.419 320.191 362.702 319.832 362.985 319.473L371.435 291.973C369.889 298.13 368.111 305.074 364.984 316.197C364.658 317.104 364.778 317.198 364.615 317.652C365.301 317.028 372.987 292.225 374.567 287.26L366.117 314.76C366.185 314.426 366.28 314.306 366.348 313.972L380.887 267.397C376.748 280.051 372.849 292.893 368.616 305.667C371.511 295.332 373.426 287.72 376.802 275.047C377.077 273.711 377.077 273.711 376.932 273.402C376.177 274.36 376.177 274.36 362.016 320.456Z" fill="#0B0B0A"/>
<path d="M364.497 280.294C365.234 280.098 365.852 279.809 366.495 279.733L354.91 317.379C356.051 316.919 357.097 316.579 358.023 316.144C359.944 314.941 362.424 309.327 365.327 299.969L372.36 276.981C372.763 276.716 373.38 276.426 373.783 276.162L366.75 299.15C364.08 307.72 359.1 322.428 355.541 324.475C354.306 325.055 352.951 325.539 351.382 326.05C351.262 325.955 351.262 325.955 351.048 325.98C350.902 325.671 350.706 324.934 351.564 322.117L364.497 280.294Z" fill="#0B0B0A"/>
<path d="M348.028 283.422C351.243 283.044 354.244 282.692 357.005 282.151C361.343 282.076 355.125 302.796 350.544 308.114C350.261 308.473 349.481 309.216 348.743 309.411C346.934 309.732 344.911 310.079 342.768 310.33C340.247 311.06 337.936 319.914 339.11 320.646C339.23 320.74 339.445 320.715 339.445 320.715C342.968 320.193 346.158 319.601 349.133 319.035L346.651 327.366C343.796 328.027 340.606 328.618 336.963 329.046C332.196 329.171 336.638 309.963 343.02 303.347C343.397 302.869 344.272 302.005 345.224 301.785C347.367 301.534 349.391 301.187 351.2 300.866C353.695 299.922 355.526 290.69 354.617 290.362L354.403 290.387C351.642 290.928 348.642 291.28 345.427 291.658L348.028 283.422Z" fill="#0B0B0A"/>
<path d="M338.331 284.125C339.403 283.999 340.5 284.088 341.572 283.962L327.411 330.058C326.339 330.184 325.362 330.19 324.17 330.221L338.331 284.125Z" fill="#0B0B0A"/>
<path d="M313.368 283.47C317.972 283.799 322.669 284.008 326.913 284.053C331.636 284.476 328.716 294.597 328.321 295.838L321.356 318.492C318.548 327.73 314.612 330.257 312.752 330.149C308.388 330.009 303.811 329.895 299.207 329.566L301.689 321.235C306.293 321.564 310.99 321.773 315.234 321.818C316.091 321.718 316.897 321.188 317.662 318.491L324.532 295.957C325.39 293.14 324.885 292.547 324.122 292.528C319.759 292.389 315.181 292.274 310.578 291.945L313.368 283.47Z" fill="#0B0B0A"/>
<path d="M290.961 280.559C292.418 280.931 292.366 283.219 291.713 285.033L278.643 327.525C277.212 327.367 275.874 327.09 274.443 326.932L284.473 294.466C267.9 314.011 258.782 324.098 258.782 324.098C257.624 325.32 255.978 325.188 255.817 322.925C255.663 321.64 256.084 320.612 256.152 320.278L269.222 277.787C270.774 278.039 272.111 278.317 273.663 278.569L263.633 311.035C290.507 280.395 290.507 280.395 290.961 280.559Z" fill="#0B0B0A"/>
<path d="M233.999 290.395C238.799 291.461 243.719 292.622 248.399 293.594L245.823 302.044C241.023 300.978 236.223 299.911 231.423 298.845L233.999 290.395ZM237.678 271.168C244.604 272.745 251.316 274.348 258.216 275.711C259.793 276.177 259.74 278.465 259.208 280.374L246.395 322.293C244.844 322.04 243.387 321.668 241.835 321.416L253.42 283.77C247.402 282.521 241.265 281.177 235.222 279.713L237.678 271.168Z" fill="#0B0B0A"/>
<path d="M207.268 263.113C215.607 265.61 224.016 267.774 232.305 269.843L229.728 278.294C226.36 277.385 222.897 276.597 219.528 275.688L207.944 313.334C206.367 312.867 204.91 312.495 203.332 312.028L214.797 274.288C211.428 273.38 207.94 272.377 204.571 271.469L207.268 263.113Z" fill="#0B0B0A"/>
<path d="M159.885 246.728C160.46 246.987 161.179 247.554 161.196 249.508C161.203 267.759 161.203 267.759 161.356 286.318C182.04 256.622 182.04 256.622 182.324 256.263C183.362 254.946 185.29 254.719 185.692 257.171C185.966 258.551 185.571 259.793 185.528 260.341L172.457 302.832C170.88 302.366 169.398 301.779 167.82 301.312L176.27 273.812C159.97 297.454 159.97 297.454 159.781 297.693C158.434 299.155 156.737 298.593 156.387 296.57C156.361 296.356 156.43 296.022 156.405 295.808C156.309 281.37 156.428 266.907 156.428 266.907L147.978 294.407C146.496 293.82 145.013 293.234 143.436 292.767L156.506 250.275C157.313 247.03 158.977 246.4 159.885 246.728Z" fill="#0B0B0A"/>
<path d="M125.808 233.454C127.197 234.16 128.56 234.652 129.948 235.358L118.363 273.004C120.78 274.133 123.292 275.141 125.803 276.15C127.62 276.806 133.706 277.722 137.888 264.52L144.921 241.532C146.404 242.118 147.887 242.705 149.249 243.196L142.216 266.185C137.364 281.964 129.132 286.732 123.201 284.387C119.996 283.025 116.79 281.662 113.705 280.395C112.196 279.594 112.343 277.187 112.876 275.278L125.808 233.454Z" fill="#0B0B0A"/>
<path d="M99.1707 220.61C103.456 222.823 107.741 225.036 112.24 227.224C119.088 230.875 114.713 252.464 106.722 254.706C106.414 254.851 105.033 255.122 103.885 254.604C100.894 253.217 97.8769 251.616 94.9801 250.109C92.0146 248.936 89.6702 256.599 90.766 259.403C90.9628 260.141 91.537 260.399 91.777 260.588C96.6364 263.06 101.71 265.506 106.904 268.048L104.422 276.378C99.2538 274.051 94.2744 271.485 89.295 268.919C82.8761 265.218 87.371 243.723 95.1476 241.507C95.9793 241.192 96.8622 241.305 97.7707 241.633C100.668 243.14 103.659 244.527 106.675 246.129C109.975 247.371 111.934 239.211 110.889 236.834C110.598 236.217 110.118 235.838 109.879 235.649C105.379 233.461 101.094 231.248 96.8087 229.035L99.1707 220.61Z" fill="#0B0B0A"/>
<path d="M87.8921 214.437C89.0662 215.169 90.2146 215.686 91.3887 216.417L77.2279 262.513C76.0538 261.782 74.7854 261.17 73.7313 260.534L87.8921 214.437Z" fill="#0B0B0A"/>
<path d="M66.7093 200.845C69.9228 203.184 73.3506 205.498 76.9928 207.786C79.9664 209.936 79.4741 216.729 77.851 222.243L70.8865 244.897C68.3534 252.8 65.0346 255.036 62.832 253.882C59.0699 251.499 55.642 249.185 52.5485 246.941L55.0304 238.61C58.2439 240.949 61.6718 243.263 65.3139 245.551C65.8882 245.81 66.6511 245.829 67.6042 242.893L74.8086 220.427C75.6674 217.611 75.2307 216.684 74.6308 216.211C70.8687 213.828 67.4409 211.515 64.3473 209.27L66.7093 200.845Z" fill="#0B0B0A"/>
<path d="M54.3175 189.914C55.1141 191.124 54.1178 194.609 53.9547 195.063L40.8845 237.554C40.1647 236.987 39.5393 236.3 38.9394 235.827L48.9695 203.361C43.2727 212.069 39.3687 218.503 33.2337 229C32.9762 229.574 32.7619 229.599 32.4532 229.744C31.6134 229.082 32.6784 225.263 32.9359 224.69L45.9805 181.984C46.366 182.482 46.8714 183.074 47.3769 183.667L37.3468 216.133C43.4131 205.969 53.3577 189.158 54.3175 189.914Z" fill="#0B0B0A"/>
<path d="M34.421 190.728C34.9346 192.298 35.6624 193.842 36.5102 195.481L33.934 203.931C33.0861 202.292 32.3583 200.748 31.8447 199.179L34.421 190.728ZM40.0293 171.275C40.6196 173.487 41.7586 175.744 43.2319 178.07C43.5742 179.116 42.9042 181.693 42.4148 183.054L29.6022 224.973C29.2167 224.475 28.9255 223.857 28.66 223.454L40.2445 185.808C39.0111 183.671 38.0177 181.724 37.573 179.82L40.0293 171.275Z" fill="#0B0B0A"/>
<path d="M37.4061 171.149C37.1743 171.936 36.9424 172.724 36.9504 173.701L25.3659 211.346C25.4171 211.775 25.254 212.229 25.3052 212.657L36.7698 174.917C36.7778 175.894 36.9058 176.965 37.1282 177.917L39.7045 169.467C39.3029 167.015 39.3555 164.727 39.9824 162.698L37.4061 171.149Z" fill="#0B0B0A"/>
</g>
<path fill-rule="evenodd" clip-rule="evenodd" d="M375.118 61.1522C375.316 59.3728 375.264 57.5746 374.964 55.8095C374.111 50.7768 371.294 46.2888 367.131 43.3324C362.968 40.3761 357.801 39.1937 352.767 40.0451L254.049 56.7785C252.215 57.088 250.443 57.6602 248.785 58.4714L248.776 58.4625L248.737 58.4954C247.435 59.1371 246.205 59.9265 245.071 60.8521C243.811 61.8811 242.693 63.0611 241.737 64.3609L216.786 85.2701L222.939 92.9565L245.539 86.7582L260.861 130.698L336.745 117.845L339.552 130.229L361.358 112.527C363.035 111.583 364.572 110.387 365.911 108.969C368.782 105.929 370.585 102.038 371.047 97.8835L375.118 61.1522Z" fill="#ECD04A"/>
<path d="M255.564 266.762L270.07 135.871L248.355 119.455C240.393 112.492 216.773 216.616 206.523 213.999C196.274 211.382 180.981 198.274 170.654 200.568C160.328 202.863 153.992 200.561 145.817 207.271C137.642 213.981 131.162 222.521 126.901 232.2C122.64 241.878 120.719 252.424 121.292 262.983C121.865 273.542 124.916 283.818 130.2 292.98C135.483 302.142 142.849 309.932 151.702 315.72C160.556 321.508 170.648 325.131 181.162 326.296L183.462 326.513C200.885 327.841 218.143 322.353 231.594 311.205C245.046 300.058 253.64 284.123 255.564 266.762Z" fill="#ECD04A"/>
<path d="M349.106 75.3726L349.106 75.3729C349.383 77.0004 349.43 78.6584 349.248 80.2991L349.248 80.2994L345.177 117.03C345.177 117.03 345.177 117.03 345.177 117.031C344.751 120.861 343.089 124.449 340.442 127.251C337.795 130.054 334.307 131.919 330.505 132.564L236.232 148.531L235.116 148.72L234.991 149.845L222.421 263.272C220.54 280.247 212.137 295.827 198.985 306.726C185.836 317.622 168.968 322.989 151.937 321.694C151.933 321.693 151.929 321.693 151.924 321.693L149.675 321.481C149.671 321.481 149.667 321.48 149.663 321.48C139.387 320.339 129.524 316.797 120.871 311.14C112.215 305.481 105.012 297.864 99.8469 288.906C94.6814 279.949 91.6979 269.901 91.1376 259.577C90.5773 249.253 92.456 238.943 96.6217 229.48C100.787 220.017 107.123 211.667 115.116 205.106C123.109 198.545 132.536 193.958 142.632 191.715C152.728 189.472 163.211 189.636 173.233 192.194C183.254 194.753 192.532 199.634 200.317 206.442L202.465 208.321L202.794 205.486L216.377 88.5126C217.491 85.7097 219.303 83.236 221.641 81.3262C224.028 79.3771 226.881 78.0826 229.92 77.57L229.921 77.5698L328.638 60.8365C328.638 60.8365 328.638 60.8365 328.639 60.8364C333.281 60.0515 338.045 61.1419 341.883 63.8678C345.722 66.5939 348.32 70.7322 349.106 75.3726Z" fill="white" stroke="#ECD04A" stroke-width="3"/>
<path d="M168.456 202.326L162.139 259.33L140.799 274.309" stroke="white"/>
<path d="M162.178 259.001L194.469 262.579" stroke="white"/>
<g clip-path="url(#clip2_4387_307)">
<path d="M39.215 153.136C39.2846 152.801 39.449 152.345 39.6387 152.105L46.8961 128.561C42.218 144.383 40.7957 149.895 40.8211 150.11C41.0107 149.87 41.1309 149.964 41.7631 147.926C44.8356 138.838 46.454 134.065 50.26 123.799L43.0026 147.343C43.2871 146.982 43.6918 146.715 44.0966 146.449L55.381 109.887C56.1775 107.393 56.1269 106.963 56.1016 106.748C56.1016 106.748 56.1016 106.748 56.0067 106.868C55.817 107.109 55.6273 107.349 55.0647 109.052C51.7076 118.502 49.0776 125.793 44.2918 139.775C46.7193 130.763 49.6969 121.794 52.0042 112.688C51.9347 113.023 51.9346 113.023 51.4668 114.605L39.215 153.136Z" fill="#0B0B0A"/>
<path d="M67.9451 100.867C67.2052 101.064 66.5854 101.356 65.9404 101.432L56.0152 133.799C54.8705 134.262 53.8208 134.605 52.8912 135.043C51.1963 135.463 51.5058 131.61 53.965 123.794L60.0275 103.99C59.6228 104.257 59.0031 104.548 58.5984 104.815L52.5358 124.618C47.4088 141.257 49.1165 142.798 50.786 142.163C52.0255 141.579 53.3851 141.09 54.9598 140.575C55.9843 140.017 56.8504 137.188 57.1096 136.612L67.9451 100.867Z" fill="#0B0B0A"/>
<path d="M84.4967 97.914C81.2714 98.2982 78.2611 98.6568 75.4912 99.2048C70.9569 100.508 64.1544 120.508 67.5381 122.395C67.7784 122.585 68.2084 122.533 68.2084 122.533C70.0235 122.208 72.0535 121.857 74.2037 121.601C76.2843 121.681 74.0337 128.491 72.3706 130.106C71.9659 130.373 71.7762 130.613 71.441 130.544C68.0007 130.954 64.8008 131.553 61.721 132.247L59.521 139.487C62.3858 138.819 65.5857 138.22 69.2411 137.784C74.996 136.663 81.7543 117.213 77.4092 114.568C77.0487 114.284 76.6187 114.335 76.4985 114.241C74.3483 114.497 72.4131 114.727 70.5033 115.173C68.4226 115.094 71.5522 107.415 72.6462 106.522C72.741 106.402 73.0509 106.256 73.2659 106.23C76.0358 105.682 79.0461 105.323 82.2714 104.939L84.4967 97.914Z" fill="#0B0B0A"/>
<path d="M94.0067 97.2172C92.9316 97.3453 91.8312 97.2583 90.7561 97.3863L78.6309 136.993C79.6112 136.985 80.6863 136.857 81.8815 136.824L94.0067 97.2172Z" fill="#0B0B0A"/>
<path d="M118.83 97.8588C114.213 97.5364 109.717 97.3087 105.341 97.1758C100.559 97.3091 97.5818 106.278 97.2531 107.189L91.26 126.657C88.8008 134.473 91.3497 136.677 93.2154 136.782C97.5917 136.915 102.088 137.143 106.705 137.465L108.905 130.225C104.288 129.903 99.7917 129.675 95.4153 129.542C94.745 129.404 94.0492 129.05 94.8458 126.557L100.744 107.209C101.237 105.842 101.825 104.355 103.115 104.201C107.492 104.334 111.988 104.562 116.605 104.884L118.83 97.8588Z" fill="#0B0B0A"/>
<path d="M141.483 99.5219C139.953 99.4861 138.84 101.145 138.277 102.848L126.993 139.41C128.428 139.566 129.769 139.843 131.205 139.999L139.796 112.044C144.643 132.837 147.047 142.146 147.047 142.146C147.56 143.721 149.52 143.705 150.867 141.255C150.962 141.135 151.126 140.679 151.455 139.767L162.739 103.205C161.184 102.954 159.843 102.678 158.407 102.522L149.816 130.477C142.154 99.6601 142.154 99.6601 141.483 99.5219Z" fill="#0B0B0A"/>
<path d="M186.868 125.736C182.055 124.674 177.337 123.491 172.645 122.524L170.445 129.764C175.137 130.732 179.95 131.794 184.668 132.976L186.868 125.736ZM193.842 109.968C186.993 108.276 180.289 106.894 173.585 105.511C171.814 105.286 170.537 107.401 170.259 108.742L159.234 144.729C160.695 145.1 162.25 145.351 163.591 145.627L173.516 113.261C179.55 114.505 185.488 115.869 191.547 117.328L193.842 109.968Z" fill="#0B0B0A"/>
<path d="M223.998 117.934C215.758 115.535 207.422 113.257 199.232 111.288L197.032 118.529C200.409 119.435 203.761 120.126 207.139 121.032L197.213 153.398C198.674 153.77 200.255 154.235 201.836 154.701L211.762 122.335C215.139 123.241 218.516 124.147 221.799 125.174L223.998 117.934Z" fill="#0B0B0A"/>
<path d="M271.223 132.916C270.887 132.847 269.977 132.52 268.838 133.964C262.509 142.241 256.179 150.518 249.945 158.675C250.014 158.34 248.493 126.901 248.297 126.161C248.094 124.441 246.317 123.235 244.584 125.186C243.92 126.028 243.686 126.819 243.497 127.06L232.212 163.622C233.793 164.088 235.28 164.674 236.74 165.046L243.998 141.502C245.171 167.203 245.171 167.203 245.291 167.298C245.614 169.113 247.435 169.769 248.694 168.419C248.788 168.299 248.978 168.058 249.073 167.938C253.98 161.466 258.981 154.873 263.888 148.401L256.631 171.944C258.117 172.531 259.603 173.117 261.184 173.583L272.469 137.02C273.101 134.982 272.253 133.339 271.223 132.916Z" fill="#0B0B0A"/>
<path d="M304.622 147.147C303.351 146.535 301.864 145.949 300.593 145.337L290.668 177.703C288.246 176.574 285.728 175.566 283.331 174.652C281.605 173.876 276.273 170.259 279.737 158.943L285.8 139.14C284.314 138.553 282.948 138.062 281.461 137.476L275.399 157.279C270.67 172.671 276.768 180.013 281.131 181.892C284.344 183.254 287.437 184.521 290.555 186.003C291.801 186.4 292.99 185.386 293.717 183.228L304.622 147.147Z" fill="#0B0B0A"/>
<path d="M330.982 159.926C326.808 157.807 322.513 155.592 318.004 153.404C310.882 150.326 304.693 165.347 307.805 173.263C308.609 175.457 310.025 176.379 310.721 176.732C313.719 178.12 316.622 179.627 319.525 181.135C322.333 182.763 319.988 189.694 317.983 190.26C317.458 190.431 317.003 190.268 316.762 190.078C311.892 187.605 306.928 185.253 301.843 182.805L299.643 190.046C304.823 192.373 309.813 194.94 314.562 197.318C321.254 200.447 327.348 185.546 324.451 177.605C323.818 175.935 323.021 174.722 321.845 173.99C318.942 172.482 316.039 170.974 313.041 169.587C309.898 167.889 312.484 161.148 314.368 160.488C314.893 160.316 315.349 160.48 315.684 160.549C320.073 162.643 324.367 164.857 328.662 167.072L330.982 159.926Z" fill="#0B0B0A"/>
<path d="M342.163 166.009C340.987 165.277 339.836 164.76 338.66 164.027L326.534 203.634C327.711 204.366 328.862 204.883 330.038 205.615L342.163 166.009Z" fill="#0B0B0A"/>
<path d="M363.15 179.428C360.051 177.181 356.617 174.864 352.847 172.478C349.678 170.566 346.58 175.732 345.316 179.808L339.323 199.276C336.864 207.092 339.185 211.068 340.722 212.084C344.371 214.376 347.806 216.692 351.025 219.035L353.225 211.795C350.126 209.547 346.691 207.23 342.922 204.844C342.682 204.655 341.72 203.897 342.491 201.188L348.39 181.841C348.788 180.594 349.471 178.986 350.527 179.623C354.176 181.915 357.611 184.231 360.83 186.574L363.15 179.428Z" fill="#0B0B0A"/>
<path d="M376.052 189.013C375.116 188.47 374.035 191.325 373.966 191.66L362.681 228.223C363.402 228.791 363.908 229.385 364.629 229.953L373.221 201.998C372.684 211.33 372.331 219.441 370.739 235.55C370.581 236.986 370.822 237.175 371.062 237.365C371.277 237.339 371.802 237.168 372.693 234.554L383.978 197.991C383.592 197.492 383.086 196.898 382.58 196.304L373.989 224.259C373.963 224.044 377.039 189.986 376.052 189.013Z" fill="#0B0B0A"/>
<path d="M384.676 224.295C384.164 222.72 383.436 221.171 382.494 219.648L380.294 226.888C381.141 228.532 381.869 230.081 382.476 231.535L384.676 224.295ZM389.93 208.731C389.247 206.632 388.203 204.248 386.729 201.916L386.609 201.821C386.514 201.942 385.894 202.233 385.098 204.727L374.072 240.713C374.458 241.213 374.749 241.832 375.015 242.237L384.94 209.87C386.174 212.013 387.167 213.967 387.61 215.877L389.93 208.731Z" fill="#0B0B0A"/>
<path d="M390.202 217.53C390.929 215.372 390.866 212.981 390.467 210.521L388.267 217.761C388.488 218.716 388.615 219.791 388.621 220.772L378.696 253.138C378.747 253.568 378.797 253.998 378.633 254.454L388.558 222.087C388.445 222.973 388.331 223.859 388.002 224.771L390.202 217.53Z" fill="#0B0B0A"/>
</g>
</g>
<defs>
<clipPath id="clip0_4387_307">
<rect width="451" height="387" fill="white"/>
</clipPath>
<clipPath id="clip1_4387_307">
<rect width="370.734" height="237.95" fill="white" transform="translate(127.723 34.8511) rotate(38.246)"/>
</clipPath>
<clipPath id="clip2_4387_307">
<rect width="368.61" height="237.95" fill="white" transform="translate(147.508 -28.0034) rotate(38.246)"/>
</clipPath>
</defs>
</svg>
