<svg width="53" height="51" viewBox="0 0 53 51" fill="none" xmlns="http://www.w3.org/2000/svg">
<rect width="53" height="51" fill="white"/>
<path fill-rule="evenodd" clip-rule="evenodd" d="M26 40.9999C34.2842 40.9999 40.9999 34.2842 40.9999 26C40.9999 17.7157 34.2842 11 26 11C17.7157 11 11 17.7157 11 26C11 34.2842 17.7157 40.9999 26 40.9999ZM29.4145 18.114C30.8438 18.362 32.2107 18.7951 33.4855 19.3829C33.4965 19.3877 33.506 19.3956 33.5115 19.4068C35.77 22.7454 36.8855 26.5114 36.4685 30.8469C36.4669 30.8653 36.4575 30.882 36.4425 30.8932C34.7318 32.1557 33.0748 32.9221 31.4405 33.4302C31.4145 33.4382 31.3862 33.4286 31.3704 33.4063C30.9928 32.8783 30.6499 32.3216 30.3495 31.737C30.3322 31.7027 30.3479 31.6612 30.3834 31.6477C30.9281 31.4411 31.4461 31.1938 31.9443 30.9011C31.9837 30.878 31.9861 30.8214 31.9498 30.7943C31.8442 30.7153 31.7393 30.6324 31.6392 30.5494C31.6203 30.5343 31.5951 30.5311 31.5738 30.5414C28.3393 32.0432 24.7957 32.0432 21.5226 30.5414C21.5013 30.5319 21.4761 30.5351 21.4579 30.5502C21.3578 30.6332 21.253 30.7153 21.1481 30.7943C21.1119 30.8214 21.115 30.878 21.1544 30.9011C21.6527 31.1883 22.1706 31.4411 22.7145 31.6485C22.75 31.662 22.7666 31.7027 22.7492 31.737C22.4552 32.3224 22.1123 32.8791 21.7276 33.4071C21.711 33.4286 21.6834 33.4382 21.6574 33.4302C20.0311 32.9221 18.374 32.1557 16.6633 30.8932C16.6491 30.882 16.6389 30.8645 16.6373 30.8461C16.2889 27.096 16.9992 23.2989 19.592 19.406C19.5983 19.3956 19.6077 19.3877 19.6188 19.3829C20.8943 18.7943 22.2613 18.3612 23.6897 18.114C23.7157 18.11 23.7417 18.122 23.7551 18.1451C23.9317 18.4593 24.1335 18.8621 24.2699 19.1915C25.7756 18.9602 27.305 18.9602 28.8422 19.1915C28.9786 18.8693 29.1733 18.4593 29.3491 18.1451C29.3625 18.1212 29.3885 18.1092 29.4145 18.114ZM21.4406 26.5369C21.4406 27.6535 22.2526 28.5627 23.238 28.5627C24.2392 28.5627 25.0354 27.6535 25.0354 26.5369C25.0511 25.4283 24.2471 24.5112 23.238 24.5112C22.2368 24.5112 21.4406 25.4204 21.4406 26.5369ZM28.0862 26.5369C28.0862 27.6535 28.8982 28.5627 29.8836 28.5627C30.8927 28.5627 31.681 27.6535 31.681 26.5369C31.6968 25.4283 30.8927 24.5112 29.8836 24.5112C28.8824 24.5112 28.0862 25.4204 28.0862 26.5369Z" fill="black"/>
</svg>
