<svg width="18" height="18" viewBox="0 0 18 18" fill="none" xmlns="http://www.w3.org/2000/svg">
<path d="M13.276 12.7884C12.7556 12.4232 12.5784 12.1017 11.9694 11.8694C12.4013 10.8394 12.6561 10.4408 12.6889 9.22329H15.1693C15.1026 10.9176 14.3941 11.6813 13.276 12.789V12.7884ZM2.32482 9.22329H5.1814C5.21475 10.4414 5.46952 10.8399 5.90087 11.8694C5.30292 12.1024 4.73737 12.4113 4.21809 12.7884C3.09952 11.6813 2.39097 10.917 2.32482 9.22275V9.22329ZM4.08524 4.78289C4.58518 5.1888 5.14085 5.52077 5.73522 5.76861C5.40282 6.68764 5.21475 7.31854 5.19288 8.3819H2.32482C2.38004 6.83197 3.12193 5.85718 4.08524 4.78343V4.78289ZM9.36704 8.37042V6.35523C10.1751 6.33336 10.5851 6.1781 11.3161 5.92333C11.6261 6.79807 11.8032 7.37376 11.8365 8.37042H9.36758H9.36704ZM11.1499 11.7037C10.4632 11.4823 10.1199 11.3604 9.36704 11.3385V9.22384H11.836C11.8026 10.3867 11.5594 10.7295 11.1493 11.7043L11.1499 11.7037ZM11.7808 12.6889C12.3231 12.8994 12.456 13.176 12.9212 13.497C12.0379 14.2585 10.961 14.7605 9.80988 14.9474C10.4408 14.305 11.3598 13.5412 11.7808 12.6884V12.6889ZM8.9909 15.0365L9.36758 12.2018C10.0543 12.2242 10.3309 12.3346 10.9509 12.5227C10.4837 13.4841 9.82424 14.3395 9.01331 15.036H8.9909V15.0365ZM7.69519 14.9479C6.54381 14.7599 5.46952 14.2503 4.57291 13.4975C5.04538 13.1699 5.55455 12.8987 6.09004 12.6895C6.49407 13.5276 7.03696 14.2914 7.69573 14.9485L7.69519 14.9479ZM8.50323 9.22329V11.338C7.75041 11.3604 7.40707 11.4818 6.7204 11.7032C6.31091 10.7175 6.06708 10.3856 6.03373 9.22275H8.50268L8.50323 9.22329ZM6.55474 5.92333C7.2857 6.1781 7.69519 6.32188 8.50378 6.35523V8.37042H6.03482C6.06817 7.37376 6.2453 6.79807 6.55529 5.92333H6.55474ZM5.91236 4.94909C5.37155 4.72568 4.86473 4.42755 4.40671 4.06341C5.32573 3.17773 6.37761 2.502 7.69519 2.28058C6.93066 3.04373 6.32474 3.95066 5.91236 4.94909ZM8.50323 2.19201V5.50291C7.75041 5.48104 7.40707 5.34764 6.73188 5.11529C7.22994 3.94149 7.58421 2.94483 8.48136 2.19201H8.50323ZM9.79894 2.26964C11.1268 2.5015 12.356 3.12194 13.3313 4.05248C12.8332 4.42916 12.5451 4.69486 11.9585 4.93815C11.5266 3.91962 10.5414 3.01153 9.79949 2.26964H9.79894ZM9.01277 2.19201C9.94492 2.98252 10.674 3.98495 11.1389 5.11529C10.4637 5.34764 10.1204 5.48049 9.36704 5.50291L8.99035 2.19201H9.01277ZM8.48136 15.0256C7.68425 14.3613 7.40707 13.5084 6.91995 12.5123C7.53992 12.3128 7.82804 12.2133 8.51416 12.1914V15.0261H8.48081L8.48136 15.0256ZM15.1693 8.37042H12.6889C12.6665 7.31854 12.4784 6.68764 12.1465 5.76806C12.7889 5.50236 13.1208 5.20331 13.6637 4.78234C14.627 5.85663 15.1141 6.83087 15.1693 8.36987V8.37042ZM8.74706 1.0625C4.57291 1.0625 1.19531 4.43955 1.19531 8.61425C1.19531 12.789 4.57236 16.166 8.74706 16.166C12.9218 16.166 16.2988 12.789 16.2988 8.61425C16.2988 4.43955 12.9218 1.0625 8.74706 1.0625Z" fill="black"/>
</svg>
