<svg width="92" height="153" viewBox="0 0 92 153" fill="none" xmlns="http://www.w3.org/2000/svg">
<path d="M1 76L46 103.273V151L1 123.727V76Z" fill="#67BC89"/>
<path d="M44.7617 0L0.00084877 27.5452V75.7492L44.7617 48.204V0Z" fill="black"/>
<path d="M45.9102 103.294L45.9102 151.498" stroke="black" stroke-width="1.14771" stroke-linecap="round"/>
<path d="M90.6699 75.7493L90.6699 123.953" stroke="black" stroke-width="1.14771" stroke-linecap="round"/>
<path d="M45.9102 48.2041L45.9102 90.6695" stroke="black" stroke-width="1.14771" stroke-linecap="round"/>
<path d="M1.14844 75.7493L1.14844 123.953" stroke="black" stroke-width="1.14771" stroke-linecap="round"/>
<path d="M91.052 124.121L46.1206 152.015L1.48077 124.302" stroke="black" stroke-width="1.14771" stroke-linecap="round"/>
<path d="M35.0075 95.8313L45.5218 89.5306L56.2395 95.8315" stroke="black" stroke-width="1.14771" stroke-linecap="round"/>
<rect y="0.605352" width="52.4358" height="52.4358" transform="matrix(0.849591 0.527441 -0.849591 0.527441 46.0377 47.3425)" stroke="black" stroke-width="1.14771"/>
<path fill-rule="evenodd" clip-rule="evenodd" d="M67.9154 115.604L63.3574 101.862L75.9344 100.816L77.5692 105.745L68.3304 106.465L72.7677 119.843L72.7673 119.843C72.7673 119.843 72.7673 119.843 72.7673 119.843C73.0433 120.675 73.1359 121.559 73.0399 122.444C72.9438 123.33 72.6609 124.199 72.2074 125.002C71.7539 125.806 71.1386 126.528 70.3967 127.128C69.6548 127.727 68.8008 128.193 67.8834 128.497C66.966 128.801 66.0032 128.939 65.0501 128.901C64.0969 128.864 63.172 128.652 62.3281 128.279C61.4842 127.906 60.738 127.378 60.1319 126.726C59.5258 126.073 59.0718 125.309 58.7958 124.477C58.5198 123.645 58.4271 122.761 58.5232 121.876C58.6193 120.99 58.9021 120.121 59.3556 119.317C59.8091 118.514 60.4244 117.792 61.1664 117.192C61.9083 116.593 62.7623 116.127 63.6797 115.823C64.5971 115.519 65.5598 115.381 66.513 115.419C66.9897 115.437 67.4594 115.5 67.9154 115.604Z" fill="#67BC89"/>
</svg>
