<svg width="117" height="134" viewBox="0 0 117 134" fill="none" xmlns="http://www.w3.org/2000/svg">
<path d="M1.90039 36.3684L58.446 71.1657V132.061L1.90039 97.2637V36.3684Z" fill="#67BC89"/>
<path d="M58.4453 63.9161L58.4453 132.061" stroke="black" stroke-width="1.44989" stroke-linecap="round"/>
<path d="M1.90039 36.3684L1.90039 97.2637" stroke="black" stroke-width="1.44989"/>
<path d="M114.992 36.3684L114.992 97.2637" stroke="black" stroke-width="1.44989" stroke-linecap="round"/>
<path d="M115.473 97.4193L58.7118 132.658L2.31907 97.6479" stroke="black" stroke-width="1.44989" stroke-linecap="round"/>
<rect y="1.23064" width="65.358" height="65.358" transform="matrix(0.849591 0.527441 -0.849591 0.527441 59.0045 0.702644)" fill="black" stroke="black" stroke-width="2.33323"/>
<path fill-rule="evenodd" clip-rule="evenodd" d="M86.9707 84.3016L81.6048 68.124L95.1381 67.3156L97.0626 73.1179L87.1199 73.6555L92.3436 89.4047L92.3435 89.4047C92.3435 89.4047 92.3435 89.4048 92.3435 89.4048C92.6685 90.3845 92.7973 91.4186 92.7226 92.448C92.6479 93.4775 92.3711 94.4822 91.9082 95.4047C91.4452 96.3272 90.8051 97.1495 90.0243 97.8246C89.2436 98.4997 88.3375 99.0144 87.3578 99.3394C86.3781 99.6643 85.344 99.7931 84.3146 99.7184C83.2851 99.6437 82.2805 99.367 81.358 98.904C80.4355 98.441 79.6132 97.8009 78.9381 97.0202C78.2629 96.2394 77.7482 95.3333 77.4233 94.3536C77.0983 93.374 76.9695 92.3399 77.0442 91.3104C77.1189 90.281 77.3956 89.2763 77.8586 88.3538C78.3216 87.4313 78.9617 86.609 79.7425 85.9339C80.5232 85.2588 81.4293 84.744 82.409 84.4191C83.3887 84.0941 84.4228 83.9653 85.4522 84.04C85.9669 84.0774 86.4755 84.1653 86.9707 84.3016Z" fill="#67BC89"/>
</svg>
