<svg width="53" height="51" viewBox="0 0 53 51" fill="none" xmlns="http://www.w3.org/2000/svg">
<rect width="53" height="51" fill="white"/>
<path fill-rule="evenodd" clip-rule="evenodd" d="M24 38.9999C32.2842 38.9999 38.9999 32.2842 38.9999 24C38.9999 15.7157 32.2842 9 24 9C15.7157 9 9 15.7157 9 24C9 32.2842 15.7157 38.9999 24 38.9999ZM18.2817 30.9817C22.0137 30.9817 25.0391 27.9563 25.0391 24.2243C25.0391 20.4923 22.0137 17.4669 18.2817 17.4669C14.5497 17.4669 11.5243 20.4923 11.5243 24.2243C11.5243 27.9563 14.5497 30.9817 18.2817 30.9817ZM32.4653 24.4439C32.4653 28.0529 30.9693 30.9786 29.1238 30.9786C27.2783 30.9786 25.7822 28.0529 25.7822 24.4439C25.7822 20.8349 27.2783 17.9093 29.1238 17.9093C30.9693 17.9093 32.4653 20.8349 32.4653 24.4439ZM34.3962 30.0874C35.0524 30.0874 35.5843 27.4942 35.5843 24.2953C35.5843 21.0964 35.0524 18.5032 34.3962 18.5032C33.74 18.5032 33.2081 21.0964 33.2081 24.2953C33.2081 27.4942 33.74 30.0874 34.3962 30.0874Z" fill="black"/>
</svg>
