<svg width="53" height="51" viewBox="0 0 53 51" fill="none" xmlns="http://www.w3.org/2000/svg">
<rect width="53" height="51" fill="white"/>
<path fill-rule="evenodd" clip-rule="evenodd" d="M26 40.9999C34.2842 40.9999 40.9999 34.2842 40.9999 26C40.9999 17.7157 34.2842 11 26 11C17.7157 11 11 17.7157 11 26C11 34.2842 17.7157 40.9999 26 40.9999ZM34.1941 22.2103C35.0204 22.1154 35.8129 21.9201 36.5566 21.6255C35.9991 22.3751 35.3154 23.0265 34.5016 23.5481C34.5104 23.705 34.5166 23.863 34.5166 24.0267C34.5166 28.9195 30.3916 34.5641 22.8466 34.5641C20.5254 34.5641 18.3729 33.9602 16.5566 32.9024C16.8791 32.9396 17.2016 32.9532 17.5379 32.9532C19.4554 32.9532 21.2266 32.3593 22.6216 31.3738C20.8291 31.3388 19.3216 30.2607 18.7904 28.7942C19.0391 28.8439 19.3041 28.8574 19.5666 28.8574C19.9441 28.8574 20.3079 28.8179 20.6416 28.7355C18.7779 28.3912 17.3566 26.8965 17.3566 25.0969V25.0563C17.9041 25.3284 18.5504 25.5011 19.2091 25.5124C18.1191 24.8542 17.3879 23.7174 17.3879 22.4349C17.3879 21.7519 17.5954 21.1175 17.9491 20.5632C19.9754 22.8109 22.9916 24.2864 26.4004 24.4365C26.3329 24.1678 26.3054 23.8856 26.3054 23.5921C26.3054 21.5521 28.1329 19.8881 30.4029 19.8881C31.5729 19.8881 32.6454 20.3363 33.3979 21.0599C34.3304 20.8917 35.2054 20.5903 35.9979 20.1635C35.6929 21.0317 35.0441 21.7519 34.1941 22.2103Z" fill="black"/>
</svg>
