<svg width="92" height="153" viewBox="0 0 92 153" fill="none" xmlns="http://www.w3.org/2000/svg">
<path d="M1 76L45 103.273V151L1 123.727V76Z" fill="#ECD04A"/>
<path d="M44.7617 0L0.00084877 27.5452V75.7492L44.7617 48.204V0Z" fill="black"/>
<path d="M45.9102 103.294L45.9102 151.498" stroke="black" stroke-width="1.14771" stroke-linecap="round"/>
<path d="M90.6699 75.7493L90.6699 123.953" stroke="black" stroke-width="1.14771" stroke-linecap="round"/>
<path d="M45.9102 48.2041L45.9102 90.6695" stroke="black" stroke-width="1.14771" stroke-linecap="round"/>
<path d="M1.14844 75.7493L1.14844 123.953" stroke="black" stroke-width="1.14771" stroke-linecap="round"/>
<path d="M91.052 124.121L46.1206 152.015L1.48077 124.302" stroke="black" stroke-width="1.14771" stroke-linecap="round"/>
<path d="M35.0075 95.8313L45.5218 89.5306L56.2395 95.8315" stroke="black" stroke-width="1.14771" stroke-linecap="round"/>
<rect y="0.605352" width="52.4358" height="52.4358" transform="matrix(0.849591 0.527441 -0.849591 0.527441 46.0377 47.3425)" stroke="black" stroke-width="1.14771"/>
<path fill-rule="evenodd" clip-rule="evenodd" d="M68.9707 115.302L63.6048 99.124L77.1381 98.3156L79.0626 104.118L69.1199 104.656L74.3436 120.405L74.3435 120.405C74.3435 120.405 74.3435 120.405 74.3435 120.405C74.6685 121.384 74.7973 122.419 74.7226 123.448C74.6479 124.477 74.3711 125.482 73.9082 126.405C73.4452 127.327 72.8051 128.149 72.0243 128.825C71.2436 129.5 70.3375 130.014 69.3578 130.339C68.3781 130.664 67.344 130.793 66.3146 130.718C65.2851 130.644 64.2805 130.367 63.358 129.904C62.4355 129.441 61.6132 128.801 60.9381 128.02C60.2629 127.239 59.7482 126.333 59.4233 125.354C59.0983 124.374 58.9695 123.34 59.0442 122.31C59.1189 121.281 59.3956 120.276 59.8586 119.354C60.3216 118.431 60.9617 117.609 61.7425 116.934C62.5232 116.259 63.4293 115.744 64.409 115.419C65.3887 115.094 66.4228 114.965 67.4522 115.04C67.9669 115.077 68.4755 115.165 68.9707 115.302Z" fill="#ECD04A"/>
</svg>
