<svg width="117" height="134" viewBox="0 0 117 134" fill="none" xmlns="http://www.w3.org/2000/svg">
<path d="M1.90039 36.2473L58.446 71.0446V131.94L1.90039 97.1426V36.2473Z" fill="#ECD04A"/>
<path d="M58.4453 63.7952L58.4453 131.94" stroke="black" stroke-width="1.44989" stroke-linecap="round"/>
<path d="M2 36L2 97" stroke="black" stroke-width="1.44989" stroke-linecap="round"/>
<path d="M114.992 36.2473L114.992 97.1426" stroke="black" stroke-width="1.44989" stroke-linecap="round"/>
<path d="M115.473 97.2982L58.7118 132.536L2.31907 97.5268" stroke="black" stroke-width="1.44989" stroke-linecap="round"/>
<rect y="1.23064" width="65.358" height="65.358" transform="matrix(0.849591 0.527441 -0.849591 0.527441 59.0045 0.581551)" fill="black" stroke="black" stroke-width="2.33323"/>
<path fill-rule="evenodd" clip-rule="evenodd" d="M86.9707 88.3016L81.6048 72.124L95.1381 71.3156L97.0626 77.1179L87.1199 77.6555L92.3436 93.4047L92.3435 93.4047C92.3435 93.4047 92.3435 93.4048 92.3435 93.4048C92.6685 94.3845 92.7973 95.4186 92.7226 96.448C92.6479 97.4775 92.3711 98.4822 91.9082 99.4047C91.4452 100.327 90.8051 101.149 90.0243 101.825C89.2436 102.5 88.3375 103.014 87.3578 103.339C86.3781 103.664 85.344 103.793 84.3146 103.718C83.2851 103.644 82.2805 103.367 81.358 102.904C80.4355 102.441 79.6132 101.801 78.9381 101.02C78.2629 100.239 77.7482 99.3333 77.4233 98.3536C77.0983 97.374 76.9695 96.3399 77.0442 95.3104C77.1189 94.281 77.3956 93.2763 77.8586 92.3538C78.3216 91.4313 78.9617 90.609 79.7425 89.9339C80.5232 89.2588 81.4293 88.744 82.409 88.4191C83.3887 88.0941 84.4228 87.9653 85.4522 88.04C85.9669 88.0774 86.4755 88.1653 86.9707 88.3016Z" fill="#ECD04A"/>
</svg>
